<svg width="110" height="43" viewBox="0 0 110 43" fill="none" xmlns="http://www.w3.org/2000/svg">
<path d="M10.4375 42.375C7.45312 42.375 5.04688 41.4453 3.21875 39.5859C1.40625 37.7266 0.5 35.125 0.5 31.7812V12.75C0.5 8.75 1.28906 5.6875 2.86719 3.5625C4.46094 1.4375 7.04688 0.375 10.625 0.375C12.5781 0.375 14.3125 0.734375 15.8281 1.45312C17.3594 2.17188 18.5625 3.25 19.4375 4.6875C20.3125 6.10938 20.75 7.90625 20.75 10.0781V17.2031H12.5469V11.1094C12.5469 9.875 12.3906 9.04688 12.0781 8.625C11.7656 8.1875 11.2812 7.96875 10.625 7.96875C9.85938 7.96875 9.34375 8.25 9.07812 8.8125C8.8125 9.35938 8.67969 10.0938 8.67969 11.0156V31.6641C8.67969 32.8047 8.84375 33.6094 9.17188 34.0781C9.51562 34.5469 10 34.7812 10.625 34.7812C11.3281 34.7812 11.8203 34.4922 12.1016 33.9141C12.3984 33.3359 12.5469 32.5859 12.5469 31.6641V24.2344H20.8438V32.0391C20.8438 35.6641 19.9297 38.2969 18.1016 39.9375C16.2734 41.5625 13.7188 42.375 10.4375 42.375ZM33.4531 42.375C30.1562 42.375 27.6328 41.3828 25.8828 39.3984C24.1484 37.3984 23.2812 34.5156 23.2812 30.75V11.1562C23.2812 7.625 24.1406 4.94531 25.8594 3.11719C27.5938 1.28906 30.125 0.375 33.4531 0.375C36.7812 0.375 39.3047 1.28906 41.0234 3.11719C42.7578 4.94531 43.625 7.625 43.625 11.1562V30.75C43.625 34.5156 42.75 37.3984 41 39.3984C39.2656 41.3828 36.75 42.375 33.4531 42.375ZM33.5234 34.7812C34.7734 34.7812 35.3984 33.5703 35.3984 31.1484V11.0156C35.3984 8.98438 34.7891 7.96875 33.5703 7.96875C32.1953 7.96875 31.5078 9.00781 31.5078 11.0859V31.1953C31.5078 32.4766 31.6641 33.3984 31.9766 33.9609C32.2891 34.5078 32.8047 34.7812 33.5234 34.7812ZM46.9531 42V0.75H58.1328C61.1328 0.75 63.3125 1.48437 64.6719 2.95312C66.0469 4.40625 66.7344 6.8125 66.7344 10.1719V11.9766C66.7344 13.9141 66.3828 15.4844 65.6797 16.6875C64.9922 17.8906 63.9375 18.6797 62.5156 19.0547C64.375 19.5234 65.6172 20.625 66.2422 22.3594C66.8828 24.0781 67.2031 26.1797 67.2031 28.6641C67.2031 31.3359 66.9531 33.6719 66.4531 35.6719C65.9531 37.6719 65.0469 39.2266 63.7344 40.3359C62.4219 41.4453 60.5547 42 58.1328 42H46.9531ZM55.0156 16.2891H56.7031C57.4688 16.2891 57.9609 15.9922 58.1797 15.3984C58.3984 14.8047 58.5078 14.0938 58.5078 13.2656V9.11719C58.5078 7.78906 57.9219 7.125 56.75 7.125H55.0156V16.2891ZM55.8359 34.7344C57.9766 34.7344 59.0469 33.7188 59.0469 31.6875V26.5312C59.0469 25.3594 58.8672 24.4375 58.5078 23.7656C58.1641 23.0781 57.5078 22.7344 56.5391 22.7344H55.0156V34.6875C55.3594 34.7188 55.6328 34.7344 55.8359 34.7344ZM79.7656 42.375C76.4688 42.375 73.9453 41.3828 72.1953 39.3984C70.4609 37.3984 69.5938 34.5156 69.5938 30.75V11.1562C69.5938 7.625 70.4531 4.94531 72.1719 3.11719C73.9062 1.28906 76.4375 0.375 79.7656 0.375C83.0938 0.375 85.6172 1.28906 87.3359 3.11719C89.0703 4.94531 89.9375 7.625 89.9375 11.1562V30.75C89.9375 34.5156 89.0625 37.3984 87.3125 39.3984C85.5781 41.3828 83.0625 42.375 79.7656 42.375ZM79.8359 34.7812C81.0859 34.7812 81.7109 33.5703 81.7109 31.1484V11.0156C81.7109 8.98438 81.1016 7.96875 79.8828 7.96875C78.5078 7.96875 77.8203 9.00781 77.8203 11.0859V31.1953C77.8203 32.4766 77.9766 33.3984 78.2891 33.9609C78.6016 34.5078 79.1172 34.7812 79.8359 34.7812ZM93.2656 42V0.75H101.516V34.9688H110V42H93.2656Z" fill="black"/>
</svg>
