<svg width="152" height="28" viewBox="0 0 152 28" fill="none" xmlns="http://www.w3.org/2000/svg">
<path d="M7.14844 27.2344C5.2832 27.2344 3.7793 26.6533 2.63672 25.4912C1.50391 24.3291 0.9375 22.7031 0.9375 20.6133V8.71875C0.9375 6.21875 1.43066 4.30469 2.41699 2.97656C3.41309 1.64844 5.0293 0.984375 7.26562 0.984375C8.48633 0.984375 9.57031 1.20898 10.5176 1.6582C11.4746 2.10742 12.2266 2.78125 12.7734 3.67969C13.3203 4.56836 13.5938 5.69141 13.5938 7.04883V11.502H8.4668V7.69336C8.4668 6.92187 8.36914 6.4043 8.17383 6.14062C7.97852 5.86719 7.67578 5.73047 7.26562 5.73047C6.78711 5.73047 6.46484 5.90625 6.29883 6.25781C6.13281 6.59961 6.0498 7.05859 6.0498 7.63477V20.54C6.0498 21.2529 6.15234 21.7559 6.35742 22.0488C6.57227 22.3418 6.875 22.4883 7.26562 22.4883C7.70508 22.4883 8.0127 22.3076 8.18848 21.9463C8.37402 21.585 8.4668 21.1162 8.4668 20.54V15.8965H13.6523V20.7744C13.6523 23.04 13.0811 24.6855 11.9385 25.7109C10.7959 26.7266 9.19922 27.2344 7.14844 27.2344ZM21.5332 27.2344C19.4727 27.2344 17.8955 26.6143 16.8018 25.374C15.7178 24.124 15.1758 22.3223 15.1758 19.9688V7.72266C15.1758 5.51562 15.7129 3.84082 16.7871 2.69824C17.8711 1.55566 19.4531 0.984375 21.5332 0.984375C23.6133 0.984375 25.1904 1.55566 26.2646 2.69824C27.3486 3.84082 27.8906 5.51562 27.8906 7.72266V19.9688C27.8906 22.3223 27.3438 24.124 26.25 25.374C25.166 26.6143 23.5938 27.2344 21.5332 27.2344ZM21.5771 22.4883C22.3584 22.4883 22.749 21.7314 22.749 20.2178V7.63477C22.749 6.36523 22.3682 5.73047 21.6064 5.73047C20.7471 5.73047 20.3174 6.37988 20.3174 7.67871V20.2471C20.3174 21.0479 20.415 21.624 20.6104 21.9756C20.8057 22.3174 21.1279 22.4883 21.5771 22.4883ZM29.9707 27V1.21875H36.958C38.833 1.21875 40.1953 1.67773 41.0449 2.5957C41.9043 3.50391 42.334 5.00781 42.334 7.10742V8.23535C42.334 9.44629 42.1143 10.4277 41.6748 11.1797C41.2451 11.9316 40.5859 12.4248 39.6973 12.6592C40.8594 12.9521 41.6357 13.6406 42.0264 14.7246C42.4268 15.7988 42.627 17.1123 42.627 18.665C42.627 20.335 42.4707 21.7949 42.1582 23.0449C41.8457 24.2949 41.2793 25.2666 40.459 25.96C39.6387 26.6533 38.4717 27 36.958 27H29.9707ZM35.0098 10.9307H36.0645C36.543 10.9307 36.8506 10.7451 36.9873 10.374C37.124 10.0029 37.1924 9.55859 37.1924 9.04102V6.44824C37.1924 5.61816 36.8262 5.20312 36.0938 5.20312H35.0098V10.9307ZM35.5225 22.459C36.8604 22.459 37.5293 21.8242 37.5293 20.5547V17.332C37.5293 16.5996 37.417 16.0234 37.1924 15.6035C36.9775 15.1738 36.5674 14.959 35.9619 14.959H35.0098V22.4297C35.2246 22.4492 35.3955 22.459 35.5225 22.459ZM50.4785 27.2344C48.418 27.2344 46.8408 26.6143 45.7471 25.374C44.6631 24.124 44.1211 22.3223 44.1211 19.9688V7.72266C44.1211 5.51562 44.6582 3.84082 45.7324 2.69824C46.8164 1.55566 48.3984 0.984375 50.4785 0.984375C52.5586 0.984375 54.1357 1.55566 55.21 2.69824C56.2939 3.84082 56.8359 5.51562 56.8359 7.72266V19.9688C56.8359 22.3223 56.2891 24.124 55.1953 25.374C54.1113 26.6143 52.5391 27.2344 50.4785 27.2344ZM50.5225 22.4883C51.3037 22.4883 51.6943 21.7314 51.6943 20.2178V7.63477C51.6943 6.36523 51.3135 5.73047 50.5518 5.73047C49.6924 5.73047 49.2627 6.37988 49.2627 7.67871V20.2471C49.2627 21.0479 49.3604 21.624 49.5557 21.9756C49.751 22.3174 50.0732 22.4883 50.5225 22.4883ZM58.916 27V1.21875H64.0723V22.6055H69.375V27H58.916ZM70.5029 26.9854V22.6201H75.7471V26.9854H70.5029ZM77.6953 27V1.21875H82.998L85.3711 13.5674V1.21875H90.3516V27H85.3125L82.7344 14.1094V27H77.6953ZM92.6367 27V1.21875H97.793V22.6055H103.096V27H92.6367ZM111.592 27V1.21875H118.579C120.454 1.21875 121.816 1.67773 122.666 2.5957C123.525 3.50391 123.955 5.00781 123.955 7.10742V8.23535C123.955 9.44629 123.735 10.4277 123.296 11.1797C122.866 11.9316 122.207 12.4248 121.318 12.6592C122.48 12.9521 123.257 13.6406 123.647 14.7246C124.048 15.7988 124.248 17.1123 124.248 18.665C124.248 20.335 124.092 21.7949 123.779 23.0449C123.467 24.2949 122.9 25.2666 122.08 25.96C121.26 26.6533 120.093 27 118.579 27H111.592ZM116.631 10.9307H117.686C118.164 10.9307 118.472 10.7451 118.608 10.374C118.745 10.0029 118.813 9.55859 118.813 9.04102V6.44824C118.813 5.61816 118.447 5.20312 117.715 5.20312H116.631V10.9307ZM117.144 22.459C118.481 22.459 119.15 21.8242 119.15 20.5547V17.332C119.15 16.5996 119.038 16.0234 118.813 15.6035C118.599 15.1738 118.188 14.959 117.583 14.959H116.631V22.4297C116.846 22.4492 117.017 22.459 117.144 22.459ZM125.61 26.9854V22.6201H130.854V26.9854H125.61ZM135.176 27L131.997 1.2041H136.904L138.794 18.7529L140.479 1.2041H145.386L142.207 27H135.176ZM146.558 26.9854V22.6201H151.802V26.9854H146.558Z" fill="black"/>
</svg>
