<svg width="20" height="21" viewBox="0 0 20 21" fill="none" xmlns="http://www.w3.org/2000/svg">
<path d="M4.47768 20.6173H0.330357V6.85249H4.47768V20.6173ZM2.40179 4.97484C1.07589 4.97484 0 3.84273 0 2.47591C0 1.81926 0.253045 1.1895 0.703467 0.725179C1.15389 0.260855 1.76479 0 2.40179 0C3.03878 0 3.64968 0.260855 4.1001 0.725179C4.55053 1.1895 4.80357 1.81926 4.80357 2.47591C4.80357 3.84273 3.72768 4.97484 2.40179 4.97484ZM19.9955 20.6173H15.8571V13.9167C15.8571 12.3197 15.8259 10.2718 13.7009 10.2718C11.5446 10.2718 11.2143 12.0068 11.2143 13.8016V20.6173H7.07143V6.85249H11.0491V8.73013H11.1071C11.6607 7.64864 13.0134 6.50733 15.0313 6.50733C19.2277 6.50733 20 9.35601 20 13.0561V20.6173H19.9955Z" fill="#4E545F"/>
</svg>
