<svg width="20" height="20" viewBox="0 0 20 20" fill="none" xmlns="http://www.w3.org/2000/svg">
<g clip-path="url(#clip0_1_31)">
<path d="M6.44141 0.961116C6.14062 0.234554 5.34766 -0.152165 4.58984 0.0548664L1.15234 0.992366C0.472656 1.17987 0 1.79705 0 2.50018C0 12.1642 7.83594 20.0002 17.5 20.0002C18.2031 20.0002 18.8203 19.5275 19.0078 18.8478L19.9453 15.4103C20.1523 14.6525 19.7656 13.8596 19.0391 13.5588L15.2891 11.9963C14.6523 11.7306 13.9141 11.9142 13.4805 12.4494L11.9023 14.3752C9.15234 13.0744 6.92578 10.8478 5.625 8.09784L7.55078 6.52362C8.08594 6.08612 8.26953 5.35174 8.00391 4.71502L6.44141 0.965023V0.961116Z" fill="#4E545F"/>
</g>
<defs>
<clipPath id="clip0_1_31">
<rect width="20" height="20" fill="white"/>
</clipPath>
</defs>
</svg>
